<svg width="45" height="46" viewBox="0 0 45 46" fill="none" xmlns="http://www.w3.org/2000/svg">
<path d="M40.1786 0.214294H4.82143C2.1596 0.214294 0 2.37389 0 5.03572V40.3929C0 43.0547 2.1596 45.2143 4.82143 45.2143H40.1786C42.8404 45.2143 45 43.0547 45 40.3929V5.03572C45 2.37389 42.8404 0.214294 40.1786 0.214294ZM27.8538 38.7556C27.01 38.9063 26.6987 38.3839 26.6987 37.952C26.6987 37.4096 26.7187 34.6373 26.7187 32.3973C26.7187 30.8304 26.1964 29.8359 25.5837 29.3136C29.3002 28.9018 33.2176 28.3895 33.2176 21.971C33.2176 20.1429 32.5647 19.2288 31.5 18.0536C31.6708 17.6217 32.2433 15.8438 31.3292 13.5335C29.933 13.1016 26.7388 15.3315 26.7388 15.3315C25.4129 14.9598 23.9766 14.769 22.5603 14.769C21.144 14.769 19.7076 14.9598 18.3817 15.3315C18.3817 15.3315 15.1875 13.1016 13.7913 13.5335C12.8772 15.8337 13.4397 17.6116 13.6205 18.0536C12.5558 19.2288 12.0536 20.1429 12.0536 21.971C12.0536 28.3594 15.8002 28.9018 19.5167 29.3136C19.0346 29.7455 18.6027 30.4888 18.452 31.5536C17.4978 31.9855 15.0569 32.7288 13.6004 30.1574C12.6864 28.5703 11.0391 28.4397 11.0391 28.4397C9.41183 28.4196 10.9286 29.4643 10.9286 29.4643C12.0134 29.9665 12.7768 31.8951 12.7768 31.8951C13.7511 34.8784 18.4118 33.8739 18.4118 33.8739C18.4118 35.2701 18.4319 37.5402 18.4319 37.952C18.4319 38.3839 18.1306 38.9063 17.2768 38.7556C10.6473 36.5357 6.0067 30.2277 6.0067 22.8549C6.0067 13.6339 13.058 6.63282 22.279 6.63282C31.5 6.63282 38.9732 13.6339 38.9732 22.8549C38.9833 30.2277 34.4833 36.5458 27.8538 38.7556ZM18 32.6183C17.8092 32.6585 17.6283 32.5781 17.6083 32.4475C17.5882 32.2969 17.7187 32.1663 17.9096 32.1261C18.1004 32.106 18.2812 32.1864 18.3013 32.317C18.3315 32.4476 18.2009 32.5781 18 32.6183ZM17.0458 32.5279C17.0458 32.6585 16.8951 32.769 16.6942 32.769C16.4732 32.7891 16.3225 32.6786 16.3225 32.5279C16.3225 32.3973 16.4732 32.2868 16.6741 32.2868C16.865 32.2667 17.0458 32.3772 17.0458 32.5279ZM15.6696 32.4174C15.6295 32.548 15.4286 32.6083 15.2578 32.548C15.067 32.5078 14.9364 32.3571 14.9766 32.2266C15.0167 32.096 15.2176 32.0357 15.3884 32.0759C15.5893 32.1362 15.7199 32.2868 15.6696 32.4174ZM14.4342 31.875C14.3437 31.9855 14.1529 31.9654 14.0022 31.8147C13.8516 31.6842 13.8114 31.4933 13.9118 31.4029C14.0022 31.2924 14.1931 31.3125 14.3437 31.4632C14.4743 31.5938 14.5246 31.7946 14.4342 31.875ZM13.5201 30.9609C13.4297 31.0212 13.2589 30.9609 13.1484 30.8103C13.0379 30.6596 13.0379 30.4888 13.1484 30.4185C13.2589 30.3281 13.4297 30.3984 13.5201 30.5491C13.6306 30.6998 13.6306 30.8806 13.5201 30.9609V30.9609ZM12.8672 29.9866C12.7768 30.077 12.6261 30.0268 12.5156 29.9263C12.4051 29.7958 12.385 29.6451 12.4754 29.5748C12.5658 29.4844 12.7165 29.5346 12.827 29.635C12.9375 29.7656 12.9576 29.9163 12.8672 29.9866ZM12.1942 29.2433C12.154 29.3337 12.0234 29.3538 11.9129 29.2835C11.7824 29.2232 11.7221 29.1127 11.7623 29.0223C11.8025 28.9621 11.9129 28.9319 12.0435 28.9821C12.1741 29.0525 12.2344 29.163 12.1942 29.2433Z" fill="white"/>
</svg>
