<svg width="150" height="142" viewBox="0 0 150 142" fill="none" xmlns="http://www.w3.org/2000/svg">
<path d="M39.7059 5.88883e-07C34.5742 -0.00118465 29.6027 1.78681 25.6473 5.05616C21.6919 8.3255 19 12.8716 18.0353 17.9118C19.3588 17.7353 20.7 17.6471 22.0588 17.6471H92.6471C100.838 17.6471 108.693 20.9007 114.484 26.6923C120.276 32.4839 123.529 40.3389 123.529 48.5294V79.4118H127.941C132.247 79.4118 136.35 80.2941 140.082 81.8823C140.788 79.7206 141.176 77.4088 141.176 75V35.2941C141.176 25.9335 137.458 16.9563 130.839 10.3374C124.22 3.71848 115.243 5.88883e-07 105.882 5.88883e-07H39.7059ZM114.706 48.5294V79.4118H92.6471C87.4366 79.4107 82.3107 80.7279 77.7463 83.2409C73.1819 85.7538 69.3276 89.3808 66.542 93.7841C63.7565 98.1874 62.1303 103.224 61.815 108.425C61.4996 113.626 62.5052 118.822 64.7382 123.529H63.1765L40.4206 139.782C39.1012 140.724 37.5478 141.284 35.931 141.401C34.3142 141.518 32.6964 141.188 31.2551 140.446C29.8139 139.704 28.6049 138.579 27.7609 137.195C26.9169 135.811 26.4704 134.221 26.4706 132.6V123.529H22.0588C16.2085 123.529 10.5977 121.205 6.46088 117.069C2.32405 112.932 0 107.321 0 101.471V48.5294C0 42.679 2.32405 37.0683 6.46088 32.9315C10.5977 28.7946 16.2085 26.4706 22.0588 26.4706H92.6471C98.4974 26.4706 104.108 28.7946 108.245 32.9315C112.382 37.0683 114.706 42.679 114.706 48.5294ZM92.6471 88.2353C86.7967 88.2353 81.1859 90.5593 77.0491 94.6962C72.9123 98.833 70.5882 104.444 70.5882 110.294C70.5882 116.144 72.9123 121.755 77.0491 125.892C81.1859 130.029 86.7967 132.353 92.6471 132.353H97.0588C98.2289 132.353 99.3511 131.888 100.178 131.061C101.006 130.233 101.471 129.111 101.471 127.941C101.471 126.771 101.006 125.649 100.178 124.822C99.3511 123.994 98.2289 123.529 97.0588 123.529H92.6471C89.1368 123.529 85.7704 122.135 83.2883 119.653C80.8062 117.171 79.4118 113.804 79.4118 110.294C79.4118 106.784 80.8062 103.417 83.2883 100.935C85.7704 98.4532 89.1368 97.0588 92.6471 97.0588H97.0588C98.2289 97.0588 99.3511 96.594 100.178 95.7667C101.006 94.9393 101.471 93.8171 101.471 92.6471C101.471 91.477 101.006 90.3548 100.178 89.5275C99.3511 88.7001 98.2289 88.2353 97.0588 88.2353H92.6471ZM123.529 88.2353C122.359 88.2353 121.237 88.7001 120.41 89.5275C119.582 90.3548 119.118 91.477 119.118 92.6471C119.118 93.8171 119.582 94.9393 120.41 95.7667C121.237 96.594 122.359 97.0588 123.529 97.0588H127.941C131.451 97.0588 134.818 98.4532 137.3 100.935C139.782 103.417 141.176 106.784 141.176 110.294C141.176 113.804 139.782 117.171 137.3 119.653C134.818 122.135 131.451 123.529 127.941 123.529H123.529C122.359 123.529 121.237 123.994 120.41 124.822C119.582 125.649 119.118 126.771 119.118 127.941C119.118 129.111 119.582 130.233 120.41 131.061C121.237 131.888 122.359 132.353 123.529 132.353H127.941C133.792 132.353 139.402 130.029 143.539 125.892C147.676 121.755 150 116.144 150 110.294C150 104.444 147.676 98.833 143.539 94.6962C139.402 90.5593 133.792 88.2353 127.941 88.2353H123.529ZM88.2353 110.294C88.2353 109.124 88.7001 108.002 89.5275 107.175C90.3548 106.347 91.477 105.882 92.6471 105.882H127.941C129.111 105.882 130.233 106.347 131.061 107.175C131.888 108.002 132.353 109.124 132.353 110.294C132.353 111.464 131.888 112.586 131.061 113.414C130.233 114.241 129.111 114.706 127.941 114.706H92.6471C91.477 114.706 90.3548 114.241 89.5275 113.414C88.7001 112.586 88.2353 111.464 88.2353 110.294Z" fill="white"/>
</svg>
