<svg width="1907" height="150" viewBox="0 0 1907 150" fill="none" xmlns="http://www.w3.org/2000/svg">
<path opacity="0.1" d="M0 150V109.874C160.083 95.2196 328.667 76.1939 488.75 92.9364C648.833 109.679 808.917 90.2792 969 34.7375C1129.08 -20.8042 1280.67 -4.03505 1440.75 44.9059C1600.83 93.8468 1760.92 95.456 1921 49.7335V150H0Z" fill="#B3B3B3"/>
<path opacity="0.1" d="M0 150V30.1291C160.083 65.5914 320.167 87.3525 480.25 104.288C640.333 121.223 800.417 123.379 960.5 110.757C1120.58 98.1354 1280.67 71.2593 1440.75 30.1291C1600.83 -11.0012 1760.92 17.9846 1921 117.086V150H0Z" fill="#B3B3B3"/>
<path opacity="0.1" d="M0 150V46.3044C160.083 20.2939 320.167 14.5691 480.25 29.1302C640.333 43.6913 800.417 54.2116 960.5 60.6911C1120.58 67.1707 1280.67 57.493 1440.75 31.6582C1600.83 5.8233 1760.92 31.0854 1921 107.444V150H0Z" fill="url(#paint0_linear_3_199)"/>
<defs>
<linearGradient id="paint0_linear_3_199" x1="0" y1="150" x2="1921" y2="150" gradientUnits="userSpaceOnUse">
<stop stop-color="#F2F3F5"/>
<stop offset="1" stop-color="#EBECED"/>
</linearGradient>
</defs>
</svg>
